<?xml version="1.0" standalone="no"?>
<!DOCTYPE svg PUBLIC "-//W3C//DTD SVG 20010904//EN"
 "http://www.w3.org/TR/2001/REC-SVG-20010904/DTD/svg10.dtd">
<svg version="1.0" xmlns="http://www.w3.org/2000/svg"
 width="1188.000000pt" height="1188.000000pt" viewBox="0 0 1188.000000 1188.000000"
 preserveAspectRatio="xMidYMid meet">
<metadata>
Created by potrace 1.14, written by Peter Selinger 2001-2017
</metadata>
<g transform="translate(0.000000,1188.000000) scale(0.100000,-0.100000)"
fill="#000000" stroke="none">
<path d="M1075 9025 c-105 -19 -114 -22 -190 -45 -157 -49 -346 -158 -469
-271 -48 -45 -121 -125 -179 -199 -23 -29 -107 -177 -107 -188 0 -7 -4 -12
-10 -12 -5 0 -9 -3 -8 -7 1 -5 -4 -21 -11 -38 -24 -57 -52 -140 -57 -165 -3
-14 -9 -41 -14 -60 -19 -76 -24 -131 -24 -265 -1 -128 3 -177 19 -260 10 -50
25 -109 34 -130 9 -21 44 -116 46 -125 1 -3 11 -27 23 -53 12 -27 22 -50 22
-53 0 -2 14 -32 30 -66 17 -34 30 -65 30 -69 0 -5 11 -32 24 -61 45 -100 64
-143 106 -243 48 -115 76 -178 96 -219 8 -16 14 -35 14 -43 0 -34 16 0 18 39
8 131 75 414 128 535 8 17 14 35 14 40 0 14 71 170 113 248 20 38 37 73 37 77
0 4 5 8 10 8 6 0 10 9 10 19 0 11 3 21 8 23 4 2 28 35 53 73 103 157 282 361
418 475 30 25 59 51 67 58 7 6 17 12 23 12 6 0 11 4 11 9 0 7 173 129 225 157
11 6 52 29 90 51 39 21 86 45 105 52 19 8 40 18 45 22 13 9 178 73 230 89 22
6 47 14 55 17 30 12 179 49 230 57 19 3 49 9 65 12 28 6 60 10 95 13 10 1 8 7
-10 21 -14 10 -27 17 -29 15 -2 -3 -16 4 -30 13 -14 10 -55 33 -91 52 -36 18
-81 42 -100 53 -66 38 -85 47 -97 47 -6 0 -13 4 -15 8 -3 10 -301 167 -307
163 -2 -1 -7 1 -10 7 -3 5 -22 14 -41 22 -19 7 -53 19 -75 27 -22 8 -47 17
-55 19 -8 2 -42 11 -75 19 -89 23 -106 25 -270 29 -95 3 -176 -1 -220 -9z"/>
<path d="M10410 9024 c-119 -21 -131 -24 -193 -45 -58 -19 -346 -155 -357
-168 -4 -5 -81 -46 -245 -130 -27 -14 -52 -28 -55 -31 -3 -3 -49 -27 -102 -55
-53 -27 -96 -51 -95 -52 1 -1 25 -4 52 -8 28 -3 57 -7 65 -9 8 -1 33 -6 55
-10 82 -16 280 -69 293 -78 6 -6 12 -8 12 -5 0 10 194 -70 300 -123 178 -89
389 -231 503 -339 318 -298 502 -569 646 -951 56 -148 126 -455 124 -542 -1
-57 10 -39 94 157 9 22 17 42 18 45 0 3 11 28 24 55 12 28 24 56 25 63 1 7 8
18 14 24 7 7 12 18 12 25 0 7 12 39 27 70 14 32 30 67 34 78 4 11 20 47 35 80
14 33 35 82 46 109 10 27 27 68 37 90 39 89 72 203 88 307 12 81 7 404 -7 404
-1 0 -3 15 -6 34 -2 18 -12 59 -21 90 -9 31 -17 58 -18 61 -10 55 -92 217
-164 324 -43 65 -176 209 -246 267 -134 110 -384 227 -545 255 -145 25 -340
29 -450 8z"/>
<path d="M3947 7733 c36 -80 52 -124 59 -160 1 -6 7 -27 13 -45 11 -36 19 -73
27 -128 3 -19 9 -51 13 -70 8 -43 6 -246 -3 -315 -12 -86 -18 -120 -22 -126
-2 -3 -6 -21 -9 -40 -12 -66 -57 -186 -112 -296 -31 -62 -59 -113 -63 -113 -4
0 -13 -13 -20 -30 -7 -16 -15 -30 -19 -30 -4 0 -14 -12 -23 -27 -68 -115 -314
-327 -451 -389 -18 -8 -39 -19 -47 -24 -52 -33 -243 -96 -345 -114 -16 -3 -41
-8 -55 -11 -14 -3 -59 -6 -101 -6 -236 0 -426 200 -414 436 11 212 160 370
378 401 21 3 45 7 52 8 8 1 18 5 21 9 4 4 14 7 22 7 14 0 83 29 92 39 3 4 18
12 33 20 28 15 82 64 128 117 66 77 118 238 113 349 -2 47 -5 62 -18 124 -5
24 -55 130 -78 166 -54 84 -208 187 -318 213 -51 12 -210 13 -255 1 -16 -4
-48 -10 -70 -14 -78 -11 -242 -67 -351 -121 -96 -47 -238 -132 -254 -153 -3
-3 -22 -19 -43 -34 -64 -48 -180 -169 -242 -252 -17 -22 -33 -41 -37 -43 -5
-2 -8 -8 -8 -14 0 -5 -13 -28 -29 -51 -31 -46 -75 -130 -72 -136 2 -2 -1 -7
-6 -10 -32 -21 -122 -317 -140 -456 -11 -94 -6 -430 7 -430 1 0 4 -13 6 -30 3
-16 12 -57 21 -90 8 -33 17 -67 18 -75 2 -8 4 -16 5 -17 2 -2 3 -6 4 -10 1 -5
4 -12 7 -18 4 -5 12 -28 19 -50 17 -52 110 -239 121 -243 5 -2 9 -8 9 -14 0
-21 127 -185 205 -263 83 -85 293 -245 320 -245 4 0 19 -9 33 -19 15 -10 29
-19 32 -19 3 0 25 -9 50 -20 55 -26 150 -63 170 -67 8 -2 15 -4 15 -5 0 -1 7
-3 15 -5 8 -1 33 -8 55 -13 22 -6 55 -14 74 -17 19 -3 37 -8 41 -10 12 -7 175
-19 265 -18 110 0 226 12 341 34 28 5 61 12 75 14 13 3 51 12 84 20 33 9 65
17 70 18 6 1 16 6 23 10 6 5 12 6 12 3 0 -3 19 2 43 10 23 9 49 17 57 19 54
13 355 147 370 164 3 3 21 14 40 23 57 29 197 119 251 162 14 12 40 32 59 46
56 42 121 101 210 190 230 231 376 446 523 770 54 118 126 350 143 460 3 19 7
43 10 52 16 54 31 181 38 324 l5 91 -47 25 c-26 14 -78 42 -117 63 -103 55
-198 106 -300 159 -49 26 -119 63 -155 83 -36 19 -96 51 -135 70 -38 20 -77
43 -87 50 -9 8 -22 15 -30 17 -7 1 -17 4 -23 8 -42 26 -313 168 -320 168 -2 0
7 -26 22 -57z"/>
<path d="M7885 7756 c-33 -18 -112 -60 -175 -93 -63 -32 -126 -66 -140 -75
-14 -8 -83 -46 -155 -83 -71 -37 -157 -82 -190 -100 -136 -73 -223 -120 -280
-150 -33 -18 -92 -49 -131 -70 l-71 -38 4 -86 c6 -143 33 -333 65 -451 11 -41
23 -91 28 -110 19 -78 74 -226 131 -348 16 -35 29 -65 29 -67 0 -16 185 -317
213 -347 6 -7 31 -39 55 -71 55 -74 98 -121 199 -221 140 -139 220 -205 363
-300 47 -31 90 -59 95 -63 22 -17 289 -153 299 -153 4 0 25 -9 49 -19 83 -38
293 -103 377 -117 14 -3 32 -7 40 -10 17 -7 60 -14 105 -19 16 -2 30 -4 30 -5
0 -7 192 -23 279 -22 68 0 178 9 216 17 14 3 36 8 50 10 37 6 69 13 90 20 10
3 27 8 37 10 32 6 164 56 227 86 151 71 277 160 400 283 112 111 156 161 156
176 0 5 5 10 10 10 6 0 10 6 10 14 0 8 3 16 8 18 4 2 20 23 36 47 88 136 174
348 200 496 3 17 8 41 11 55 24 104 24 370 0 493 -18 92 -23 118 -36 167 -7
25 -15 50 -19 55 -4 6 -10 22 -14 38 -8 34 -50 130 -77 177 -11 19 -26 47 -32
63 -6 15 -15 27 -19 27 -4 0 -8 5 -8 11 0 11 -53 91 -78 117 -7 8 -25 30 -40
50 -36 48 -136 148 -197 198 -91 74 -227 163 -252 165 -5 0 -15 6 -23 13 -21
18 -173 81 -245 100 -33 10 -73 21 -90 26 -56 16 -130 24 -225 24 -114 0 -145
-6 -227 -45 -267 -128 -383 -448 -257 -710 57 -117 137 -198 254 -255 19 -9
37 -18 40 -19 41 -13 98 -27 123 -30 167 -21 302 -132 355 -291 15 -43 19 -79
17 -134 -3 -65 -8 -109 -15 -117 -2 -2 -3 -7 -4 -12 0 -5 -4 -13 -8 -17 -5 -4
-8 -13 -8 -20 0 -19 -53 -94 -92 -130 -41 -40 -114 -85 -122 -77 -3 4 -6 2 -6
-4 0 -12 -97 -34 -155 -35 -55 -1 -146 12 -230 33 -62 15 -219 70 -230 80 -5
5 -14 9 -21 9 -15 0 -158 81 -162 92 -2 4 -8 8 -13 8 -21 0 -129 88 -219 179
-111 112 -116 118 -185 225 -46 72 -68 113 -120 231 -15 34 -45 119 -50 144
-2 9 -10 45 -18 81 -35 152 -41 383 -12 520 3 14 8 41 11 60 3 19 10 43 15 53
5 9 7 17 5 17 -7 0 56 176 78 218 9 17 13 32 9 32 -5 0 -35 -15 -68 -34z"/>
<path d="M5915 6548 c-20 -109 -21 -117 -25 -120 -2 -3 -5 -17 -14 -55 -31
-139 -122 -398 -197 -558 -18 -38 -33 -72 -34 -75 -6 -26 -169 -312 -192 -340
-7 -8 -13 -19 -12 -24 0 -5 -3 -12 -8 -15 -5 -3 -34 -42 -65 -86 -31 -44 -65
-91 -77 -105 -11 -14 -24 -30 -28 -35 -228 -302 -593 -612 -973 -828 -65 -36
-244 -125 -300 -147 -30 -12 -75 -30 -100 -41 -79 -33 -304 -106 -359 -116
-13 -2 -28 -6 -33 -9 -5 -3 -21 -8 -36 -10 -15 -3 -47 -10 -72 -15 -42 -10
-54 -13 -105 -23 -11 -2 -56 -9 -100 -16 -44 -6 -91 -13 -105 -16 -42 -7 -231
-18 -305 -18 -68 1 -245 12 -295 19 -74 11 -110 17 -155 26 -91 19 -180 41
-190 47 -5 4 -18 8 -29 9 -33 6 -134 41 -231 82 -169 72 -433 227 -512 301
-13 11 -23 18 -23 14 0 -6 60 -151 95 -229 8 -16 48 -111 90 -210 42 -99 88
-204 101 -233 13 -29 24 -55 24 -57 0 -2 12 -30 27 -62 14 -32 25 -61 25 -65
-1 -5 3 -8 10 -8 6 0 8 -3 5 -6 -4 -4 2 -19 13 -34 11 -16 20 -33 20 -39 0 -6
5 -11 10 -11 6 0 10 -5 10 -12 0 -16 85 -128 150 -196 64 -67 155 -145 222
-190 96 -65 284 -150 368 -166 14 -3 41 -10 60 -15 64 -20 124 -25 265 -25
148 0 225 7 315 29 43 11 42 10 60 18 8 3 33 11 55 17 22 7 60 22 85 35 25 12
47 21 50 21 9 -1 125 68 128 76 2 4 9 8 15 8 10 0 29 13 84 60 7 5 15 10 18
10 3 0 35 22 70 50 35 27 67 50 70 50 3 0 11 5 18 10 7 6 39 31 72 55 33 25
65 48 70 53 6 4 42 30 80 57 39 27 82 58 96 69 15 12 39 30 54 41 16 11 33 25
39 30 6 6 31 23 56 40 25 16 47 32 50 35 3 3 28 21 55 39 28 19 52 38 55 41 3
4 28 21 55 40 28 19 52 37 55 40 3 3 27 22 55 40 27 19 56 40 65 46 47 38 152
114 157 114 4 0 13 7 22 16 16 15 303 224 352 256 27 17 29 16 218 -77 281
-139 319 -154 426 -170 48 -7 185 -8 206 -1 7 3 31 8 53 11 21 3 42 8 47 11 5
3 18 7 30 9 11 2 77 31 145 65 69 33 130 60 135 60 5 0 9 5 9 10 0 6 5 10 10
10 6 0 53 20 105 45 l94 45 63 -47 c35 -25 81 -59 103 -75 73 -53 190 -138
205 -151 9 -6 36 -25 60 -42 25 -16 51 -35 58 -42 7 -7 26 -20 42 -30 17 -9
30 -21 30 -25 0 -4 7 -8 15 -8 8 0 15 -4 15 -8 0 -4 15 -16 33 -27 17 -10 36
-24 40 -32 4 -7 12 -13 17 -13 6 0 18 -7 27 -15 10 -8 83 -62 163 -119 80 -58
150 -109 155 -114 6 -5 24 -17 40 -28 16 -10 36 -25 45 -33 8 -7 54 -41 103
-76 48 -34 97 -70 110 -79 12 -9 60 -44 107 -78 47 -34 87 -64 90 -67 3 -3 13
-10 22 -16 9 -5 56 -37 105 -71 85 -59 221 -130 283 -149 3 -1 23 -7 45 -14
156 -48 200 -54 390 -55 135 0 207 5 257 20 16 5 35 9 81 19 47 10 175 60 237
94 36 19 75 39 87 45 13 6 23 14 23 19 0 4 6 7 14 7 8 0 16 3 18 8 2 4 28 25
58 47 68 50 227 208 242 243 8 18 84 127 91 130 4 2 7 8 7 13 0 5 13 37 29 71
16 35 66 149 111 253 45 105 88 204 95 220 7 17 22 52 34 79 12 27 31 69 41
95 10 25 32 77 49 115 18 38 30 70 28 73 -3 2 -18 -8 -35 -22 -16 -14 -33 -25
-37 -25 -3 0 -12 -6 -19 -12 -8 -7 -22 -19 -32 -26 -62 -41 -126 -82 -151 -95
-142 -74 -189 -98 -263 -129 -72 -30 -175 -68 -202 -74 -5 -1 -10 -3 -13 -4
-3 -1 -8 -3 -12 -4 -5 -1 -24 -7 -43 -14 -19 -6 -46 -13 -60 -16 -14 -2 -54
-11 -90 -19 -100 -23 -144 -29 -295 -42 -172 -15 -374 -8 -555 20 -25 4 -56 9
-70 11 -65 9 -153 27 -290 59 -29 7 -255 76 -275 84 -11 4 -37 16 -58 25 -21
9 -42 16 -47 16 -23 0 -331 147 -435 208 -209 121 -425 279 -579 422 -128 119
-354 363 -365 393 -2 7 -10 17 -16 22 -19 15 -145 194 -145 205 0 5 -4 10 -8
10 -5 0 -16 15 -26 33 -25 48 -41 73 -53 88 -14 18 -174 326 -177 342 -1 7
-14 37 -28 68 -25 52 -125 336 -133 376 -2 10 -12 54 -24 98 -11 44 -23 96
-27 115 -7 44 -12 64 -14 68 -5 5 -8 23 -9 52 -2 59 -18 28 -36 -72z"/>
</g>
</svg>
