<svg xmlns="http://www.w3.org/2000/svg" viewBox="0 0 296.82 155.13">
  <defs>
    <style>
      .cls-1 {
        fill: #513a2a;
        fill-rule: evenodd;
      }
    </style>
  </defs>
  <g id="Vrstva_2" data-name="Vrstva 2">
    <g id="Vrstva_1-2" data-name="Vrstva 1">
      <path class="cls-1" d="M33.34,115.92l8.58,20a31.77,31.77,0,0,0,47.89,13.15l40.45-29.42,10.23,5a18.12,18.12,0,0,0,15.84,0l10.24-5L207,149.05A31.76,31.76,0,0,0,254.9,135.9l8.59-20a58,58,0,0,1-41.82,12.32,82.16,82.16,0,0,1-73.26-69.38,82.15,82.15,0,0,1-73.25,69.38A58,58,0,0,1,33.34,115.92ZM198.91,31.05,168.5,47.27a61.12,61.12,0,0,0,55.19,60.07,37.23,37.23,0,0,0,7.19-74.11,13.37,13.37,0,0,0-2.58,26.61,10.5,10.5,0,0,1-2,20.9,34.38,34.38,0,0,1-27.36-49.69Zm-101,0A34.38,34.38,0,0,1,70.55,80.74a10.5,10.5,0,0,1-2-20.9A13.37,13.37,0,0,0,66,33.23a37.23,37.23,0,1,0,7.18,74.11,61.13,61.13,0,0,0,55.2-60.07ZM11.53,65.14A58.16,58.16,0,0,1,63,12.43L46.73,3.74A31.77,31.77,0,0,0,2.58,44.31ZM233.81,12.43A58.17,58.17,0,0,1,285.3,65.14l8.94-20.83A31.77,31.77,0,0,0,250.09,3.74Z"/>
    </g>
  </g>
</svg>
